<?xml version="1.0" encoding="UTF-8"?>
<svg xmlns="http://www.w3.org/2000/svg" xmlns:xlink="http://www.w3.org/1999/xlink" width="32px" height="32px" viewBox="0 0 32 32" version="1.1">
<g id="surface1">
<path style=" stroke:none;fill-rule:nonzero;fill:rgb(100%,99.607843%,99.607843%);fill-opacity:1;" d="M 14.875 32.0625 C 9.917969 32.0625 4.992188 32.0625 0.0625 32.0625 C 0.0625 21.398438 0.0625 10.738281 0.0625 0.0664062 C 10.722656 0.0664062 21.382812 0.0664062 32.054688 0.0664062 C 32.054688 10.730469 32.054688 21.394531 32.054688 32.0625 C 26.339844 32.0625 20.625 32.0625 14.875 32.0625 M 21.765625 12.917969 C 21.582031 12.546875 21.425781 12.164062 21.214844 11.808594 C 20.316406 10.292969 19.011719 9.335938 17.230469 9.214844 C 15.40625 9.089844 13.972656 9.878906 12.886719 11.332031 C 12.355469 12.046875 12.082031 12.875 11.804688 13.722656 C 11.316406 13.722656 10.933594 13.929688 10.679688 14.335938 C 10.402344 14.769531 10.273438 15.25 10.363281 15.765625 C 10.40625 16.003906 10.40625 16.199219 10.148438 16.308594 C 9.902344 16.410156 9.667969 16.398438 9.492188 16.1875 C 9.34375 16.007812 9.230469 15.789062 9.085938 15.601562 C 8.875 15.324219 8.648438 15.054688 8.453125 14.8125 C 8.710938 14.554688 9.070312 14.289062 9.308594 13.9375 C 9.964844 12.984375 9.492188 11.6875 8.441406 11.460938 C 7.21875 11.199219 5.941406 11.796875 5.359375 12.902344 C 4.835938 13.910156 4.800781 14.976562 5.003906 16.0625 C 5.09375 16.554688 5.308594 16.992188 5.707031 17.316406 C 6.351562 17.832031 7.160156 17.535156 7.300781 16.730469 C 7.324219 16.585938 7.324219 16.441406 7.335938 16.296875 C 7.367188 15.945312 7.398438 15.597656 7.425781 15.242188 C 7.804688 15.238281 7.921875 15.523438 8.070312 15.746094 C 8.304688 16.101562 8.488281 16.496094 8.75 16.828125 C 9.164062 17.355469 9.960938 17.390625 10.46875 16.945312 C 10.5625 16.863281 10.652344 16.78125 10.753906 16.695312 C 11.199219 17.105469 11.714844 17.078125 12.242188 17.054688 C 12.601562 17.910156 13.101562 18.664062 13.839844 19.242188 C 15.316406 20.394531 16.941406 20.71875 18.6875 19.992188 C 20.464844 19.253906 21.460938 17.851562 21.921875 16.011719 C 22.296875 16.097656 22.40625 16.007812 22.5 15.644531 C 22.644531 15.105469 22.808594 14.574219 22.980469 14.042969 C 23.019531 13.921875 23.128906 13.820312 23.207031 13.710938 C 23.242188 13.699219 23.277344 13.691406 23.308594 13.683594 C 23.25 14.546875 23.488281 15.074219 24.441406 14.777344 C 24.652344 15.351562 25.011719 15.691406 25.625 15.714844 C 26.210938 15.734375 26.652344 15.4375 27.054688 15.074219 C 27.605469 15.496094 27.914062 15.570312 28.484375 15.425781 C 29.019531 15.289062 29.484375 14.667969 29.363281 14.222656 C 29.339844 14.136719 29.265625 14.039062 29.1875 14 C 29.152344 13.980469 29.039062 14.082031 28.980469 14.144531 C 28.867188 14.28125 28.785156 14.445312 28.660156 14.566406 C 28.355469 14.867188 27.917969 14.828125 27.765625 14.515625 C 28.042969 14.335938 28.339844 14.183594 28.589844 13.96875 C 29.011719 13.609375 29.09375 12.925781 28.8125 12.488281 C 28.589844 12.144531 28.09375 12.039062 27.632812 12.28125 C 27.429688 12.390625 27.246094 12.5625 27.105469 12.75 C 26.800781 13.160156 26.730469 13.640625 26.761719 14.144531 C 26.769531 14.261719 26.765625 14.433594 26.695312 14.488281 C 26.460938 14.664062 26.207031 14.847656 25.933594 14.941406 C 25.667969 15.03125 25.421875 14.898438 25.308594 14.613281 C 25.128906 14.171875 25.15625 13.730469 25.386719 13.320312 C 25.445312 13.214844 25.609375 13.171875 25.726562 13.101562 C 25.765625 13.21875 25.832031 13.332031 25.832031 13.449219 C 25.832031 13.632812 25.789062 13.863281 26.03125 13.855469 C 26.167969 13.851562 26.363281 13.691406 26.425781 13.550781 C 26.589844 13.199219 26.460938 12.738281 26.191406 12.523438 C 25.941406 12.316406 25.511719 12.332031 25.167969 12.558594 C 24.734375 12.847656 24.523438 13.273438 24.417969 13.773438 C 24.402344 13.859375 24.292969 13.929688 24.226562 14.007812 C 24.179688 13.917969 24.09375 13.828125 24.085938 13.734375 C 24.074219 13.550781 24.136719 13.359375 24.109375 13.175781 C 24.082031 12.988281 24.03125 12.695312 23.910156 12.652344 C 23.734375 12.585938 23.417969 12.625 23.292969 12.75 C 23.003906 13.035156 22.792969 13.402344 22.558594 13.738281 C 22.503906 13.816406 22.472656 13.914062 22.433594 14 C 22.410156 13.992188 22.382812 13.984375 22.359375 13.980469 C 22.398438 13.683594 22.445312 13.390625 22.46875 13.097656 C 22.476562 12.980469 22.460938 12.78125 22.40625 12.761719 C 22.285156 12.71875 22.128906 12.75 21.992188 12.785156 C 21.921875 12.800781 21.867188 12.882812 21.765625 12.917969 M 18.167969 21.753906 C 18.105469 21.695312 18.039062 21.636719 17.976562 21.578125 C 17.929688 21.632812 17.851562 21.6875 17.847656 21.746094 C 17.839844 22.253906 17.84375 22.757812 17.84375 23.296875 C 17.957031 23.289062 18.101562 23.296875 18.105469 23.277344 C 18.148438 23.050781 18.175781 22.824219 18.203125 22.609375 C 18.421875 22.609375 18.625 22.609375 18.851562 22.609375 C 18.851562 22.777344 18.859375 22.921875 18.851562 23.066406 C 18.835938 23.292969 18.9375 23.34375 19.167969 23.261719 C 19.167969 22.792969 19.175781 22.316406 19.160156 21.84375 C 19.15625 21.75 19.058594 21.664062 19.003906 21.578125 C 18.953125 21.667969 18.863281 21.761719 18.859375 21.855469 C 18.839844 22.316406 18.929688 22.296875 18.390625 22.292969 C 18.328125 22.292969 18.269531 22.285156 18.167969 22.277344 C 18.167969 22.117188 18.167969 21.960938 18.167969 21.753906 M 9.84375 22.414062 C 9.867188 22.925781 10.0625 23.234375 10.414062 23.300781 C 10.828125 23.386719 11.164062 23.164062 11.273438 22.738281 C 11.394531 22.242188 11.1875 21.707031 10.824219 21.589844 C 10.785156 21.578125 10.746094 21.574219 10.703125 21.570312 C 10.199219 21.511719 9.929688 21.761719 9.84375 22.414062 M 19.527344 22.308594 C 19.542969 22.472656 19.53125 22.644531 19.578125 22.796875 C 19.664062 23.066406 19.824219 23.273438 20.136719 23.308594 C 20.609375 23.367188 20.945312 23.058594 20.976562 22.53125 C 21.015625 21.941406 20.71875 21.558594 20.234375 21.5625 C 19.84375 21.570312 19.652344 21.757812 19.527344 22.308594 M 21.414062 21.582031 C 21.386719 21.644531 21.332031 21.703125 21.332031 21.761719 C 21.320312 22.074219 21.316406 22.386719 21.328125 22.699219 C 21.34375 23.089844 21.558594 23.308594 21.925781 23.324219 C 22.332031 23.339844 22.597656 23.136719 22.625 22.738281 C 22.652344 22.367188 22.632812 21.992188 22.632812 21.597656 C 22.519531 21.597656 22.433594 21.597656 22.308594 21.597656 C 22.308594 21.949219 22.308594 22.292969 22.308594 22.632812 C 22.3125 22.863281 22.214844 23.019531 21.964844 23.019531 C 21.722656 23.019531 21.648438 22.847656 21.644531 22.640625 C 21.636719 22.359375 21.65625 22.078125 21.632812 21.800781 C 21.628906 21.722656 21.523438 21.652344 21.414062 21.582031 M 23.296875 22.488281 C 23.425781 22.527344 23.566406 22.550781 23.675781 22.621094 C 23.757812 22.667969 23.800781 22.78125 23.859375 22.863281 C 23.769531 22.917969 23.679688 23.015625 23.585938 23.019531 C 23.492188 23.023438 23.394531 22.9375 23.296875 22.890625 C 23.203125 22.84375 23.113281 22.792969 22.984375 22.726562 C 23.011719 23.199219 23.246094 23.359375 23.699219 23.316406 C 23.984375 23.289062 24.144531 23.128906 24.179688 22.867188 C 24.210938 22.625 24.078125 22.453125 23.847656 22.363281 C 23.714844 22.308594 23.570312 22.277344 23.445312 22.207031 C 23.386719 22.175781 23.320312 22.082031 23.328125 22.023438 C 23.335938 21.960938 23.429688 21.867188 23.484375 21.867188 C 23.597656 21.867188 23.710938 21.914062 23.820312 21.953125 C 23.914062 21.988281 24.003906 22.039062 24.140625 22.101562 C 24.082031 21.730469 23.964844 21.605469 23.703125 21.570312 C 23.371094 21.523438 23.136719 21.636719 23.035156 21.894531 C 22.929688 22.152344 23.035156 22.332031 23.296875 22.488281 M 16.328125 22.582031 C 16.472656 22.582031 16.613281 22.582031 16.816406 22.582031 C 16.710938 22.105469 16.304688 22.421875 16.128906 22.242188 C 16.128906 22.125 16.128906 22.007812 16.128906 21.859375 C 16.320312 21.859375 16.496094 21.867188 16.667969 21.851562 C 16.730469 21.847656 16.785156 21.773438 16.84375 21.730469 C 16.792969 21.679688 16.746094 21.585938 16.695312 21.582031 C 16.40625 21.570312 16.117188 21.578125 15.792969 21.578125 C 15.792969 21.914062 15.792969 22.210938 15.792969 22.511719 C 15.792969 23.363281 15.792969 23.367188 16.648438 23.296875 C 16.71875 23.292969 16.785156 23.214844 16.851562 23.171875 C 16.78125 23.121094 16.714844 23.035156 16.636719 23.027344 C 16.46875 23.003906 16.292969 23.019531 16.121094 23.019531 C 16.097656 22.988281 16.074219 22.960938 16.050781 22.929688 C 16.125 22.8125 16.195312 22.699219 16.328125 22.582031 M 24.914062 23.304688 C 25.046875 23.304688 25.1875 23.320312 25.316406 23.296875 C 25.40625 23.28125 25.484375 23.203125 25.566406 23.15625 C 25.476562 23.109375 25.394531 23.039062 25.300781 23.023438 C 25.152344 23 24.996094 23.019531 24.847656 23.019531 C 24.800781 22.582031 24.800781 22.582031 25.171875 22.582031 C 25.226562 22.582031 25.285156 22.597656 25.328125 22.578125 C 25.394531 22.542969 25.449219 22.480469 25.507812 22.433594 C 25.445312 22.386719 25.382812 22.332031 25.3125 22.296875 C 25.28125 22.28125 25.230469 22.292969 25.191406 22.292969 C 24.792969 22.289062 24.789062 22.285156 24.863281 21.859375 C 25.023438 21.859375 25.1875 21.871094 25.347656 21.851562 C 25.417969 21.84375 25.480469 21.769531 25.546875 21.726562 C 25.488281 21.675781 25.429688 21.585938 25.367188 21.582031 C 25.097656 21.566406 24.832031 21.574219 24.546875 21.574219 C 24.546875 22.164062 24.546875 22.726562 24.546875 23.304688 C 24.667969 23.304688 24.761719 23.304688 24.914062 23.304688 M 8.472656 22.628906 C 8.464844 22.546875 8.425781 22.453125 8.457031 22.386719 C 8.535156 22.207031 8.605469 21.984375 8.753906 21.886719 C 8.945312 21.761719 9.109375 21.917969 9.234375 22.101562 C 9.277344 22.160156 9.394531 22.167969 9.503906 22.210938 C 9.519531 21.859375 9.359375 21.683594 9.109375 21.589844 C 8.816406 21.484375 8.496094 21.589844 8.324219 21.816406 C 8.085938 22.132812 8.085938 22.730469 8.316406 23.050781 C 8.507812 23.316406 8.773438 23.371094 9.0625 23.292969 C 9.324219 23.226562 9.488281 23.054688 9.515625 22.691406 C 9.382812 22.746094 9.269531 22.757812 9.207031 22.824219 C 8.894531 23.125 8.65625 23.085938 8.472656 22.628906 M 15.359375 22.363281 C 15.253906 22.339844 15.152344 22.300781 15.046875 22.296875 C 14.679688 22.285156 14.679688 22.292969 14.734375 21.855469 C 14.910156 21.855469 15.097656 21.867188 15.28125 21.851562 C 15.332031 21.847656 15.378906 21.773438 15.425781 21.730469 C 15.375 21.679688 15.328125 21.585938 15.277344 21.582031 C 14.992188 21.570312 14.703125 21.578125 14.410156 21.578125 C 14.410156 22.171875 14.410156 22.726562 14.410156 23.300781 C 14.714844 23.300781 14.996094 23.308594 15.273438 23.296875 C 15.332031 23.292969 15.382812 23.207031 15.433594 23.160156 C 15.378906 23.113281 15.328125 23.03125 15.269531 23.027344 C 15.089844 23.007812 14.902344 23.019531 14.722656 23.019531 C 14.6875 22.585938 14.6875 22.589844 15.085938 22.578125 C 15.199219 22.574219 15.382812 22.65625 15.359375 22.363281 M 11.652344 22.34375 C 11.652344 22.585938 11.660156 22.824219 11.648438 23.0625 C 11.640625 23.3125 11.753906 23.34375 11.980469 23.246094 C 11.980469 23.027344 11.980469 22.816406 11.980469 22.578125 C 12.160156 22.578125 12.308594 22.589844 12.449219 22.570312 C 12.507812 22.5625 12.558594 22.488281 12.613281 22.441406 C 12.5625 22.394531 12.515625 22.3125 12.457031 22.304688 C 12.308594 22.285156 12.152344 22.296875 11.984375 22.296875 C 11.984375 22.132812 11.984375 22.015625 11.984375 21.855469 C 12.183594 21.855469 12.367188 21.867188 12.550781 21.851562 C 12.601562 21.847656 12.679688 21.769531 12.679688 21.722656 C 12.683594 21.675781 12.609375 21.585938 12.5625 21.585938 C 12.269531 21.570312 11.972656 21.578125 11.652344 21.578125 C 11.652344 21.847656 11.652344 22.066406 11.652344 22.34375 M 13.03125 22.160156 C 13.03125 22.53125 13.03125 22.902344 13.03125 23.273438 C 13.066406 23.292969 13.097656 23.3125 13.132812 23.332031 C 13.195312 23.257812 13.304688 23.1875 13.3125 23.105469 C 13.367188 22.605469 13.359375 22.605469 13.878906 22.574219 C 13.898438 22.574219 13.917969 22.558594 13.9375 22.550781 C 14.039062 22.285156 13.863281 22.296875 13.683594 22.296875 C 13.289062 22.296875 13.289062 22.292969 13.359375 21.855469 C 13.527344 21.855469 13.699219 21.867188 13.871094 21.851562 C 13.933594 21.84375 13.984375 21.769531 14.042969 21.726562 C 13.984375 21.679688 13.925781 21.589844 13.863281 21.585938 C 13.597656 21.566406 13.332031 21.578125 13.03125 21.578125 C 13.03125 21.773438 13.03125 21.9375 13.03125 22.160156 Z M 13.03125 22.160156 "/>
<path style=" stroke:none;fill-rule:nonzero;fill:rgb(27.843137%,27.058824%,26.27451%);fill-opacity:1;" d="M 12.238281 17.007812 C 11.714844 17.078125 11.199219 17.105469 10.753906 16.695312 C 10.652344 16.78125 10.5625 16.863281 10.46875 16.945312 C 9.960938 17.390625 9.164062 17.355469 8.75 16.828125 C 8.488281 16.496094 8.304688 16.101562 8.070312 15.746094 C 7.921875 15.523438 7.804688 15.238281 7.425781 15.242188 C 7.398438 15.597656 7.367188 15.945312 7.335938 16.296875 C 7.324219 16.441406 7.324219 16.585938 7.300781 16.730469 C 7.160156 17.535156 6.351562 17.832031 5.707031 17.316406 C 5.308594 16.992188 5.09375 16.554688 5.003906 16.0625 C 4.800781 14.976562 4.835938 13.910156 5.359375 12.902344 C 5.941406 11.796875 7.21875 11.199219 8.441406 11.460938 C 9.492188 11.6875 9.964844 12.984375 9.308594 13.9375 C 9.070312 14.289062 8.710938 14.554688 8.453125 14.8125 C 8.648438 15.054688 8.875 15.324219 9.085938 15.601562 C 9.230469 15.789062 9.34375 16.007812 9.492188 16.1875 C 9.667969 16.398438 9.902344 16.410156 10.148438 16.308594 C 10.40625 16.199219 10.40625 16.003906 10.363281 15.765625 C 10.273438 15.25 10.402344 14.769531 10.679688 14.335938 C 10.933594 13.929688 11.316406 13.722656 11.851562 13.730469 C 12.078125 13.851562 12.304688 13.929688 12.414062 14.089844 C 12.664062 14.453125 12.625 14.863281 12.414062 15.230469 C 12.292969 15.449219 12.097656 15.621094 11.910156 15.808594 C 11.691406 15.886719 11.496094 15.972656 11.265625 16.070312 C 11.511719 16.320312 11.730469 16.429688 12.039062 16.261719 C 12.453125 16.164062 12.78125 15.941406 12.957031 15.589844 C 13.230469 15.023438 13.445312 14.425781 13.691406 13.84375 C 13.742188 13.726562 13.804688 13.566406 13.902344 13.523438 C 14.070312 13.449219 14.269531 13.453125 14.457031 13.425781 C 14.460938 13.574219 14.503906 13.742188 14.453125 13.871094 C 14.320312 14.207031 14.414062 14.476562 14.636719 14.726562 C 14.925781 15.050781 15.21875 15.375 15.210938 15.910156 C 15.476562 15.707031 15.636719 15.539062 15.628906 15.21875 C 15.625 14.859375 15.65625 14.488281 15.753906 14.144531 C 15.957031 13.460938 16.695312 13.058594 17.320312 13.257812 C 17.738281 13.390625 17.925781 13.738281 18.078125 14.109375 C 18.171875 14.335938 18.4375 14.402344 18.582031 14.226562 C 18.644531 14.15625 18.65625 14.039062 18.679688 13.941406 C 18.722656 13.726562 18.738281 13.507812 18.804688 13.300781 C 18.882812 13.0625 19.234375 12.890625 19.410156 13.023438 C 19.511719 13.09375 19.527344 13.320312 19.527344 13.472656 C 19.523438 13.699219 19.453125 13.925781 19.441406 14.152344 C 19.425781 14.515625 19.4375 14.882812 19.4375 15.246094 C 19.476562 15.257812 19.515625 15.269531 19.554688 15.28125 C 19.632812 15.183594 19.746094 15.097656 19.789062 14.988281 C 19.917969 14.628906 20.027344 14.261719 20.132812 13.894531 C 20.203125 13.644531 20.246094 13.386719 20.308594 13.136719 C 20.371094 12.875 20.585938 12.839844 20.796875 12.851562 C 21.042969 12.863281 21 13.066406 20.992188 13.226562 C 20.984375 13.371094 20.96875 13.515625 20.953125 13.660156 C 20.910156 14.117188 20.851562 14.570312 20.824219 15.023438 C 20.820312 15.128906 20.910156 15.238281 20.953125 15.347656 C 21.0625 15.300781 21.195312 15.277344 21.273438 15.199219 C 21.476562 15 21.570312 14.761719 21.585938 14.457031 C 21.609375 13.945312 21.726562 13.441406 21.808594 12.9375 C 21.867188 12.882812 21.921875 12.800781 21.992188 12.785156 C 22.128906 12.75 22.285156 12.71875 22.40625 12.761719 C 22.460938 12.78125 22.476562 12.980469 22.46875 13.097656 C 22.445312 13.390625 22.398438 13.683594 22.359375 13.980469 C 22.382812 13.984375 22.410156 13.992188 22.433594 14 C 22.472656 13.914062 22.503906 13.816406 22.558594 13.738281 C 22.792969 13.402344 23.003906 13.035156 23.292969 12.75 C 23.417969 12.625 23.734375 12.585938 23.910156 12.652344 C 24.03125 12.695312 24.082031 12.988281 24.109375 13.175781 C 24.136719 13.359375 24.074219 13.550781 24.085938 13.734375 C 24.09375 13.828125 24.179688 13.917969 24.226562 14.007812 C 24.292969 13.929688 24.402344 13.859375 24.417969 13.773438 C 24.523438 13.273438 24.734375 12.847656 25.167969 12.558594 C 25.511719 12.332031 25.941406 12.316406 26.191406 12.523438 C 26.460938 12.738281 26.589844 13.199219 26.425781 13.550781 C 26.363281 13.691406 26.167969 13.851562 26.03125 13.855469 C 25.789062 13.863281 25.832031 13.632812 25.832031 13.449219 C 25.832031 13.332031 25.765625 13.21875 25.726562 13.101562 C 25.609375 13.171875 25.445312 13.214844 25.386719 13.320312 C 25.15625 13.730469 25.128906 14.171875 25.308594 14.613281 C 25.421875 14.898438 25.667969 15.03125 25.933594 14.941406 C 26.207031 14.847656 26.460938 14.664062 26.695312 14.488281 C 26.765625 14.433594 26.769531 14.261719 26.761719 14.144531 C 26.730469 13.640625 26.800781 13.160156 27.105469 12.75 C 27.246094 12.5625 27.429688 12.390625 27.632812 12.28125 C 28.09375 12.039062 28.589844 12.144531 28.8125 12.488281 C 29.09375 12.925781 29.011719 13.609375 28.589844 13.96875 C 28.339844 14.183594 28.042969 14.335938 27.765625 14.515625 C 27.917969 14.828125 28.355469 14.867188 28.660156 14.566406 C 28.785156 14.445312 28.867188 14.28125 28.980469 14.144531 C 29.039062 14.082031 29.152344 13.980469 29.1875 14 C 29.265625 14.039062 29.339844 14.136719 29.363281 14.222656 C 29.484375 14.667969 29.019531 15.289062 28.484375 15.425781 C 27.914062 15.570312 27.605469 15.496094 27.054688 15.074219 C 26.652344 15.4375 26.210938 15.734375 25.625 15.714844 C 25.011719 15.691406 24.652344 15.351562 24.441406 14.777344 C 23.488281 15.074219 23.25 14.546875 23.308594 13.683594 C 23.277344 13.691406 23.242188 13.699219 23.207031 13.710938 C 23.128906 13.820312 23.019531 13.921875 22.980469 14.042969 C 22.808594 14.574219 22.644531 15.105469 22.5 15.644531 C 22.40625 16.007812 22.296875 16.097656 21.894531 15.988281 C 21.816406 15.886719 21.765625 15.8125 21.753906 15.796875 C 21.402344 15.9375 21.105469 16.109375 20.785156 16.175781 C 20.320312 16.273438 20.246094 15.847656 20.089844 15.523438 C 20.007812 15.691406 19.949219 15.832031 19.871094 15.96875 C 19.742188 16.203125 19.550781 16.355469 19.265625 16.3125 C 18.984375 16.273438 18.832031 16.085938 18.75 15.832031 C 18.703125 15.683594 18.683594 15.527344 18.628906 15.382812 C 18.59375 15.273438 18.527344 15.089844 18.464844 15.089844 C 18.292969 15.082031 18.15625 15.144531 18.105469 15.378906 C 17.980469 15.929688 17.707031 16.390625 17.101562 16.535156 C 16.648438 16.640625 16.265625 16.496094 15.957031 16.1875 C 15.753906 16.316406 15.578125 16.453125 15.386719 16.546875 C 15.101562 16.6875 14.8125 16.84375 14.507812 16.914062 C 14.285156 16.964844 14.011719 16.9375 13.804688 16.84375 C 13.679688 16.789062 13.574219 16.539062 13.585938 16.386719 C 13.59375 16.25 13.757812 16.097656 13.890625 16.007812 C 14 15.933594 14.164062 15.945312 14.386719 15.902344 C 14.230469 15.644531 14.09375 15.425781 13.957031 15.203125 C 13.921875 15.203125 13.886719 15.203125 13.851562 15.203125 C 13.539062 16.019531 13.066406 16.675781 12.238281 17.007812 M 7.628906 14.429688 C 8.011719 14.328125 8.3125 14.117188 8.492188 13.761719 C 8.695312 13.359375 8.730469 12.933594 8.457031 12.550781 C 8.195312 12.183594 7.792969 12.15625 7.386719 12.21875 C 6.640625 12.332031 6.136719 12.757812 5.855469 13.445312 C 5.546875 14.191406 5.53125 14.96875 5.667969 15.746094 C 5.71875 16.035156 5.851562 16.316406 5.980469 16.582031 C 6.019531 16.664062 6.175781 16.75 6.253906 16.734375 C 6.328125 16.714844 6.40625 16.570312 6.421875 16.472656 C 6.46875 16.152344 6.492188 15.832031 6.503906 15.507812 C 6.507812 15.429688 6.425781 15.347656 6.375 15.269531 C 6.292969 15.144531 6.140625 15.019531 6.140625 14.894531 C 6.144531 14.785156 6.320312 14.679688 6.410156 14.566406 C 6.480469 14.484375 6.578125 14.398438 6.589844 14.300781 C 6.636719 13.972656 6.644531 13.640625 6.683594 13.308594 C 6.71875 13.007812 6.992188 12.785156 7.273438 12.828125 C 7.585938 12.875 7.585938 13.117188 7.570312 13.355469 C 7.550781 13.648438 7.519531 13.9375 7.507812 14.226562 C 7.503906 14.296875 7.550781 14.363281 7.628906 14.429688 M 17.070312 14.628906 C 17.015625 14.421875 16.957031 14.214844 16.871094 13.894531 C 16.703125 14.105469 16.507812 14.242188 16.476562 14.40625 C 16.425781 14.71875 16.4375 15.046875 16.476562 15.363281 C 16.507812 15.578125 16.65625 15.828125 16.898438 15.78125 C 17.074219 15.746094 17.234375 15.542969 17.363281 15.386719 C 17.480469 15.242188 17.453125 15.078125 17.300781 14.941406 C 17.21875 14.867188 17.164062 14.761719 17.070312 14.628906 M 27.550781 13.460938 C 27.542969 13.609375 27.53125 13.753906 27.519531 13.914062 C 27.921875 13.824219 28.226562 13.601562 28.257812 13.328125 C 28.277344 13.191406 28.1875 13.035156 28.144531 12.890625 C 27.996094 12.949219 27.824219 12.984375 27.707031 13.078125 C 27.625 13.144531 27.609375 13.296875 27.550781 13.460938 M 11.128906 15.164062 C 11.128906 15.269531 11.128906 15.375 11.128906 15.496094 C 11.675781 15.324219 11.886719 15.070312 11.828125 14.675781 C 11.816406 14.59375 11.761719 14.472656 11.703125 14.453125 C 11.621094 14.429688 11.460938 14.449219 11.421875 14.507812 C 11.304688 14.695312 11.226562 14.90625 11.128906 15.164062 Z M 11.128906 15.164062 "/>
<path style=" stroke:none;fill-rule:nonzero;fill:rgb(68.627451%,56.470588%,47.843137%);fill-opacity:1;" d="M 11.933594 15.816406 C 12.097656 15.621094 12.292969 15.449219 12.414062 15.230469 C 12.625 14.863281 12.664062 14.453125 12.414062 14.089844 C 12.304688 13.929688 12.078125 13.851562 11.878906 13.730469 C 12.082031 12.875 12.355469 12.046875 12.886719 11.332031 C 13.972656 9.878906 15.40625 9.089844 17.230469 9.214844 C 19.011719 9.335938 20.316406 10.292969 21.214844 11.808594 C 21.425781 12.164062 21.582031 12.546875 21.785156 12.925781 C 21.726562 13.441406 21.609375 13.945312 21.585938 14.457031 C 21.570312 14.761719 21.476562 15 21.273438 15.199219 C 21.195312 15.277344 21.0625 15.300781 20.953125 15.347656 C 20.910156 15.238281 20.820312 15.128906 20.824219 15.023438 C 20.851562 14.570312 20.910156 14.117188 20.953125 13.660156 C 20.96875 13.515625 20.984375 13.371094 20.992188 13.226562 C 21 13.066406 21.042969 12.863281 20.796875 12.851562 C 20.585938 12.839844 20.371094 12.875 20.308594 13.136719 C 20.246094 13.386719 20.203125 13.644531 20.132812 13.894531 C 20.027344 14.261719 19.917969 14.628906 19.789062 14.988281 C 19.746094 15.097656 19.632812 15.183594 19.554688 15.28125 C 19.515625 15.269531 19.476562 15.257812 19.4375 15.246094 C 19.4375 14.882812 19.425781 14.515625 19.441406 14.152344 C 19.453125 13.925781 19.523438 13.699219 19.527344 13.472656 C 19.527344 13.320312 19.511719 13.09375 19.410156 13.023438 C 19.234375 12.890625 18.882812 13.0625 18.804688 13.300781 C 18.738281 13.507812 18.722656 13.726562 18.679688 13.941406 C 18.65625 14.039062 18.644531 14.15625 18.582031 14.226562 C 18.4375 14.402344 18.171875 14.335938 18.078125 14.109375 C 17.925781 13.738281 17.738281 13.390625 17.320312 13.257812 C 16.695312 13.058594 15.957031 13.460938 15.753906 14.144531 C 15.65625 14.488281 15.625 14.859375 15.628906 15.21875 C 15.636719 15.539062 15.476562 15.707031 15.210938 15.910156 C 15.21875 15.375 14.925781 15.050781 14.636719 14.726562 C 14.414062 14.476562 14.320312 14.207031 14.453125 13.871094 C 14.503906 13.742188 14.460938 13.574219 14.457031 13.425781 C 14.269531 13.453125 14.070312 13.449219 13.902344 13.523438 C 13.804688 13.566406 13.742188 13.726562 13.691406 13.84375 C 13.445312 14.425781 13.230469 15.023438 12.957031 15.589844 C 12.78125 15.941406 12.453125 16.164062 12.03125 16.238281 C 11.972656 16.082031 11.953125 15.949219 11.933594 15.816406 Z M 11.933594 15.816406 "/>
<path style=" stroke:none;fill-rule:nonzero;fill:rgb(68.627451%,56.470588%,47.843137%);fill-opacity:1;" d="M 12.242188 17.03125 C 13.066406 16.675781 13.539062 16.019531 13.851562 15.203125 C 13.886719 15.203125 13.921875 15.203125 13.957031 15.203125 C 14.09375 15.425781 14.230469 15.644531 14.386719 15.902344 C 14.164062 15.945312 14 15.933594 13.890625 16.007812 C 13.757812 16.097656 13.59375 16.25 13.585938 16.386719 C 13.574219 16.539062 13.679688 16.789062 13.804688 16.84375 C 14.011719 16.9375 14.285156 16.964844 14.507812 16.914062 C 14.8125 16.84375 15.101562 16.6875 15.386719 16.546875 C 15.578125 16.453125 15.753906 16.316406 15.957031 16.1875 C 16.265625 16.496094 16.648438 16.640625 17.101562 16.535156 C 17.707031 16.390625 17.980469 15.929688 18.105469 15.378906 C 18.15625 15.144531 18.292969 15.082031 18.464844 15.089844 C 18.527344 15.089844 18.59375 15.273438 18.628906 15.382812 C 18.683594 15.527344 18.703125 15.683594 18.75 15.832031 C 18.832031 16.085938 18.984375 16.273438 19.265625 16.3125 C 19.550781 16.355469 19.742188 16.203125 19.871094 15.96875 C 19.949219 15.832031 20.007812 15.691406 20.089844 15.523438 C 20.246094 15.847656 20.320312 16.273438 20.785156 16.175781 C 21.105469 16.109375 21.402344 15.9375 21.753906 15.796875 C 21.765625 15.8125 21.816406 15.886719 21.871094 15.980469 C 21.460938 17.851562 20.464844 19.253906 18.6875 19.992188 C 16.941406 20.71875 15.316406 20.394531 13.839844 19.242188 C 13.101562 18.664062 12.601562 17.910156 12.242188 17.03125 Z M 12.242188 17.03125 "/>
<path style=" stroke:none;fill-rule:nonzero;fill:rgb(36.470588%,36.078431%,35.686275%);fill-opacity:1;" d="M 18.167969 21.78125 C 18.167969 21.960938 18.167969 22.117188 18.167969 22.277344 C 18.269531 22.285156 18.328125 22.292969 18.390625 22.292969 C 18.929688 22.296875 18.839844 22.316406 18.859375 21.855469 C 18.863281 21.761719 18.953125 21.667969 19.003906 21.578125 C 19.058594 21.664062 19.15625 21.75 19.160156 21.84375 C 19.175781 22.316406 19.167969 22.792969 19.167969 23.261719 C 18.9375 23.34375 18.835938 23.292969 18.851562 23.066406 C 18.859375 22.921875 18.851562 22.777344 18.851562 22.609375 C 18.625 22.609375 18.421875 22.609375 18.203125 22.609375 C 18.175781 22.824219 18.148438 23.050781 18.105469 23.277344 C 18.101562 23.296875 17.957031 23.289062 17.84375 23.296875 C 17.84375 22.757812 17.839844 22.253906 17.847656 21.746094 C 17.851562 21.6875 17.929688 21.632812 17.976562 21.578125 C 18.039062 21.636719 18.105469 21.695312 18.167969 21.78125 Z M 18.167969 21.78125 "/>
<path style=" stroke:none;fill-rule:nonzero;fill:rgb(35.294118%,34.901961%,34.117647%);fill-opacity:1;" d="M 9.84375 22.386719 C 9.929688 21.761719 10.199219 21.511719 10.703125 21.570312 C 10.746094 21.574219 10.785156 21.578125 10.824219 21.589844 C 11.1875 21.707031 11.394531 22.242188 11.273438 22.738281 C 11.164062 23.164062 10.828125 23.386719 10.414062 23.300781 C 10.0625 23.234375 9.867188 22.925781 9.84375 22.386719 M 10.25 22.839844 C 10.390625 23.050781 10.585938 23.078125 10.792969 22.960938 C 10.984375 22.851562 11.09375 22.429688 10.953125 22.164062 C 10.878906 22.027344 10.695312 21.914062 10.539062 21.871094 C 10.460938 21.847656 10.261719 21.988281 10.246094 22.078125 C 10.199219 22.3125 10.226562 22.554688 10.25 22.839844 Z M 10.25 22.839844 "/>
<path style=" stroke:none;fill-rule:nonzero;fill:rgb(34.901961%,34.509804%,33.72549%);fill-opacity:1;" d="M 19.527344 22.28125 C 19.652344 21.757812 19.84375 21.570312 20.234375 21.5625 C 20.71875 21.558594 21.015625 21.941406 20.976562 22.53125 C 20.945312 23.058594 20.609375 23.367188 20.136719 23.308594 C 19.824219 23.273438 19.664062 23.066406 19.578125 22.796875 C 19.53125 22.644531 19.542969 22.472656 19.527344 22.28125 M 20.648438 22.214844 C 20.597656 21.980469 20.464844 21.835938 20.214844 21.859375 C 19.945312 21.878906 19.855469 22.085938 19.832031 22.316406 C 19.816406 22.457031 19.808594 22.632812 19.882812 22.734375 C 19.96875 22.863281 20.144531 23.007812 20.273438 23 C 20.402344 22.992188 20.554688 22.824219 20.628906 22.691406 C 20.6875 22.574219 20.652344 22.40625 20.648438 22.214844 Z M 20.648438 22.214844 "/>
<path style=" stroke:none;fill-rule:nonzero;fill:rgb(36.470588%,36.470588%,35.686275%);fill-opacity:1;" d="M 21.4375 21.582031 C 21.523438 21.652344 21.628906 21.722656 21.632812 21.800781 C 21.65625 22.078125 21.636719 22.359375 21.644531 22.640625 C 21.648438 22.847656 21.722656 23.019531 21.964844 23.019531 C 22.214844 23.019531 22.3125 22.863281 22.308594 22.632812 C 22.308594 22.292969 22.308594 21.949219 22.308594 21.597656 C 22.433594 21.597656 22.519531 21.597656 22.632812 21.597656 C 22.632812 21.992188 22.652344 22.367188 22.625 22.738281 C 22.597656 23.136719 22.332031 23.339844 21.925781 23.324219 C 21.558594 23.308594 21.34375 23.089844 21.328125 22.699219 C 21.316406 22.386719 21.320312 22.074219 21.332031 21.761719 C 21.332031 21.703125 21.386719 21.644531 21.4375 21.582031 Z M 21.4375 21.582031 "/>
<path style=" stroke:none;fill-rule:nonzero;fill:rgb(35.686275%,35.294118%,34.509804%);fill-opacity:1;" d="M 23.277344 22.476562 C 23.035156 22.332031 22.929688 22.152344 23.035156 21.894531 C 23.136719 21.636719 23.371094 21.523438 23.703125 21.570312 C 23.964844 21.605469 24.082031 21.730469 24.140625 22.101562 C 24.003906 22.039062 23.914062 21.988281 23.820312 21.953125 C 23.710938 21.914062 23.597656 21.867188 23.484375 21.867188 C 23.429688 21.867188 23.335938 21.960938 23.328125 22.023438 C 23.320312 22.082031 23.386719 22.175781 23.445312 22.207031 C 23.570312 22.277344 23.714844 22.308594 23.847656 22.363281 C 24.078125 22.453125 24.210938 22.625 24.179688 22.867188 C 24.144531 23.128906 23.984375 23.289062 23.699219 23.316406 C 23.246094 23.359375 23.011719 23.199219 22.984375 22.726562 C 23.113281 22.792969 23.203125 22.84375 23.296875 22.890625 C 23.394531 22.9375 23.492188 23.023438 23.585938 23.019531 C 23.679688 23.015625 23.769531 22.917969 23.859375 22.863281 C 23.800781 22.78125 23.757812 22.667969 23.675781 22.621094 C 23.566406 22.550781 23.425781 22.527344 23.277344 22.476562 Z M 23.277344 22.476562 "/>
<path style=" stroke:none;fill-rule:nonzero;fill:rgb(36.470588%,36.078431%,35.294118%);fill-opacity:1;" d="M 16.296875 22.582031 C 16.195312 22.699219 16.125 22.8125 16.050781 22.929688 C 16.074219 22.960938 16.097656 22.988281 16.121094 23.019531 C 16.292969 23.019531 16.46875 23.003906 16.636719 23.027344 C 16.714844 23.035156 16.78125 23.121094 16.851562 23.171875 C 16.785156 23.214844 16.71875 23.292969 16.648438 23.296875 C 15.792969 23.367188 15.792969 23.363281 15.792969 22.511719 C 15.792969 22.210938 15.792969 21.914062 15.792969 21.578125 C 16.117188 21.578125 16.40625 21.570312 16.695312 21.582031 C 16.746094 21.585938 16.792969 21.679688 16.84375 21.730469 C 16.785156 21.773438 16.730469 21.847656 16.667969 21.851562 C 16.496094 21.867188 16.320312 21.859375 16.128906 21.859375 C 16.128906 22.007812 16.128906 22.125 16.128906 22.242188 C 16.304688 22.421875 16.710938 22.105469 16.816406 22.582031 C 16.613281 22.582031 16.472656 22.582031 16.296875 22.582031 Z M 16.296875 22.582031 "/>
<path style=" stroke:none;fill-rule:nonzero;fill:rgb(37.254902%,36.862745%,36.078431%);fill-opacity:1;" d="M 24.882812 23.304688 C 24.761719 23.304688 24.667969 23.304688 24.546875 23.304688 C 24.546875 22.726562 24.546875 22.164062 24.546875 21.574219 C 24.832031 21.574219 25.097656 21.566406 25.367188 21.582031 C 25.429688 21.585938 25.488281 21.675781 25.546875 21.726562 C 25.480469 21.769531 25.417969 21.84375 25.347656 21.851562 C 25.1875 21.871094 25.023438 21.859375 24.863281 21.859375 C 24.789062 22.285156 24.792969 22.289062 25.191406 22.292969 C 25.230469 22.292969 25.28125 22.28125 25.3125 22.296875 C 25.382812 22.332031 25.445312 22.386719 25.507812 22.433594 C 25.449219 22.480469 25.394531 22.542969 25.328125 22.578125 C 25.285156 22.597656 25.226562 22.582031 25.171875 22.582031 C 24.800781 22.582031 24.800781 22.582031 24.847656 23.019531 C 24.996094 23.019531 25.152344 23 25.300781 23.023438 C 25.394531 23.039062 25.476562 23.109375 25.566406 23.15625 C 25.484375 23.203125 25.40625 23.28125 25.316406 23.296875 C 25.1875 23.320312 25.046875 23.304688 24.882812 23.304688 Z M 24.882812 23.304688 "/>
<path style=" stroke:none;fill-rule:nonzero;fill:rgb(35.294118%,34.901961%,34.117647%);fill-opacity:1;" d="M 8.480469 22.65625 C 8.65625 23.085938 8.894531 23.125 9.207031 22.824219 C 9.269531 22.757812 9.382812 22.746094 9.515625 22.691406 C 9.488281 23.054688 9.324219 23.226562 9.0625 23.292969 C 8.773438 23.371094 8.507812 23.316406 8.316406 23.050781 C 8.085938 22.730469 8.085938 22.132812 8.324219 21.816406 C 8.496094 21.589844 8.816406 21.484375 9.109375 21.589844 C 9.359375 21.683594 9.519531 21.859375 9.503906 22.210938 C 9.394531 22.167969 9.277344 22.160156 9.234375 22.101562 C 9.109375 21.917969 8.945312 21.761719 8.753906 21.886719 C 8.605469 21.984375 8.535156 22.207031 8.457031 22.386719 C 8.425781 22.453125 8.464844 22.546875 8.480469 22.65625 Z M 8.480469 22.65625 "/>
<path style=" stroke:none;fill-rule:nonzero;fill:rgb(36.470588%,36.078431%,35.686275%);fill-opacity:1;" d="M 15.363281 22.386719 C 15.382812 22.65625 15.199219 22.574219 15.085938 22.578125 C 14.6875 22.589844 14.6875 22.585938 14.722656 23.019531 C 14.902344 23.019531 15.089844 23.007812 15.269531 23.027344 C 15.328125 23.03125 15.378906 23.113281 15.433594 23.160156 C 15.382812 23.207031 15.332031 23.292969 15.273438 23.296875 C 14.996094 23.308594 14.714844 23.300781 14.410156 23.300781 C 14.410156 22.726562 14.410156 22.171875 14.410156 21.578125 C 14.703125 21.578125 14.992188 21.570312 15.277344 21.582031 C 15.328125 21.585938 15.375 21.679688 15.425781 21.730469 C 15.378906 21.773438 15.332031 21.847656 15.28125 21.851562 C 15.097656 21.867188 14.910156 21.855469 14.734375 21.855469 C 14.679688 22.292969 14.679688 22.285156 15.046875 22.296875 C 15.152344 22.300781 15.253906 22.339844 15.363281 22.386719 Z M 15.363281 22.386719 "/>
<path style=" stroke:none;fill-rule:nonzero;fill:rgb(35.294118%,34.901961%,34.117647%);fill-opacity:1;" d="M 11.652344 22.3125 C 11.652344 22.066406 11.652344 21.847656 11.652344 21.578125 C 11.972656 21.578125 12.269531 21.570312 12.5625 21.585938 C 12.609375 21.585938 12.683594 21.675781 12.679688 21.722656 C 12.679688 21.769531 12.601562 21.847656 12.550781 21.851562 C 12.367188 21.867188 12.183594 21.855469 11.984375 21.855469 C 11.984375 22.015625 11.984375 22.132812 11.984375 22.296875 C 12.152344 22.296875 12.308594 22.285156 12.457031 22.304688 C 12.515625 22.3125 12.5625 22.394531 12.613281 22.441406 C 12.558594 22.488281 12.507812 22.5625 12.449219 22.570312 C 12.308594 22.589844 12.160156 22.578125 11.980469 22.578125 C 11.980469 22.816406 11.980469 23.027344 11.980469 23.246094 C 11.753906 23.34375 11.640625 23.3125 11.648438 23.0625 C 11.660156 22.824219 11.652344 22.585938 11.652344 22.3125 Z M 11.652344 22.3125 "/>
<path style=" stroke:none;fill-rule:nonzero;fill:rgb(32.941176%,32.54902%,31.764706%);fill-opacity:1;" d="M 13.03125 22.128906 C 13.03125 21.9375 13.03125 21.773438 13.03125 21.578125 C 13.332031 21.578125 13.597656 21.566406 13.863281 21.585938 C 13.925781 21.589844 13.984375 21.679688 14.042969 21.726562 C 13.984375 21.769531 13.933594 21.84375 13.871094 21.851562 C 13.699219 21.867188 13.527344 21.855469 13.359375 21.855469 C 13.289062 22.292969 13.289062 22.296875 13.683594 22.296875 C 13.863281 22.296875 14.039062 22.285156 13.9375 22.550781 C 13.917969 22.558594 13.898438 22.574219 13.878906 22.574219 C 13.359375 22.605469 13.367188 22.605469 13.3125 23.105469 C 13.304688 23.1875 13.195312 23.257812 13.132812 23.332031 C 13.097656 23.3125 13.066406 23.292969 13.03125 23.273438 C 13.03125 22.902344 13.03125 22.53125 13.03125 22.128906 Z M 13.03125 22.128906 "/>
<path style=" stroke:none;fill-rule:nonzero;fill:rgb(96.078431%,96.078431%,96.078431%);fill-opacity:1;" d="M 7.605469 14.433594 C 7.550781 14.363281 7.503906 14.296875 7.507812 14.226562 C 7.519531 13.9375 7.550781 13.648438 7.570312 13.355469 C 7.585938 13.117188 7.585938 12.875 7.273438 12.828125 C 6.992188 12.785156 6.71875 13.007812 6.683594 13.308594 C 6.644531 13.640625 6.636719 13.972656 6.589844 14.300781 C 6.578125 14.398438 6.480469 14.484375 6.410156 14.566406 C 6.320312 14.679688 6.144531 14.785156 6.140625 14.894531 C 6.140625 15.019531 6.292969 15.144531 6.375 15.269531 C 6.425781 15.347656 6.507812 15.429688 6.503906 15.507812 C 6.492188 15.832031 6.46875 16.152344 6.421875 16.472656 C 6.40625 16.570312 6.328125 16.714844 6.253906 16.734375 C 6.175781 16.75 6.019531 16.664062 5.980469 16.582031 C 5.851562 16.316406 5.71875 16.035156 5.667969 15.746094 C 5.53125 14.96875 5.546875 14.191406 5.855469 13.445312 C 6.136719 12.757812 6.640625 12.332031 7.386719 12.21875 C 7.792969 12.15625 8.195312 12.183594 8.457031 12.550781 C 8.730469 12.933594 8.695312 13.359375 8.492188 13.761719 C 8.3125 14.117188 8.011719 14.328125 7.605469 14.433594 Z M 7.605469 14.433594 "/>
<path style=" stroke:none;fill-rule:nonzero;fill:rgb(66.666667%,54.509804%,46.27451%);fill-opacity:1;" d="M 17.082031 14.652344 C 17.164062 14.761719 17.21875 14.867188 17.300781 14.941406 C 17.453125 15.078125 17.480469 15.242188 17.363281 15.386719 C 17.234375 15.542969 17.074219 15.746094 16.898438 15.78125 C 16.65625 15.828125 16.507812 15.578125 16.476562 15.363281 C 16.4375 15.046875 16.425781 14.71875 16.476562 14.40625 C 16.507812 14.242188 16.703125 14.105469 16.871094 13.894531 C 16.957031 14.214844 17.015625 14.421875 17.082031 14.652344 Z M 17.082031 14.652344 "/>
<path style=" stroke:none;fill-rule:nonzero;fill:rgb(93.333333%,93.333333%,93.333333%);fill-opacity:1;" d="M 27.558594 13.4375 C 27.609375 13.296875 27.625 13.144531 27.707031 13.078125 C 27.824219 12.984375 27.996094 12.949219 28.144531 12.890625 C 28.1875 13.035156 28.277344 13.191406 28.257812 13.328125 C 28.226562 13.601562 27.921875 13.824219 27.519531 13.914062 C 27.53125 13.753906 27.542969 13.609375 27.558594 13.4375 Z M 27.558594 13.4375 "/>
<path style=" stroke:none;fill-rule:nonzero;fill:rgb(93.333333%,93.333333%,92.941176%);fill-opacity:1;" d="M 11.128906 15.136719 C 11.226562 14.90625 11.304688 14.695312 11.421875 14.507812 C 11.460938 14.449219 11.621094 14.429688 11.703125 14.453125 C 11.761719 14.472656 11.816406 14.59375 11.828125 14.675781 C 11.886719 15.070312 11.675781 15.324219 11.128906 15.496094 C 11.128906 15.375 11.128906 15.269531 11.128906 15.136719 Z M 11.128906 15.136719 "/>
<path style=" stroke:none;fill-rule:nonzero;fill:rgb(92.156863%,91.764706%,91.764706%);fill-opacity:1;" d="M 11.910156 15.808594 C 11.953125 15.949219 11.972656 16.082031 12.007812 16.238281 C 11.730469 16.429688 11.511719 16.320312 11.265625 16.070312 C 11.496094 15.972656 11.691406 15.886719 11.910156 15.808594 Z M 11.910156 15.808594 "/>
<path style=" stroke:none;fill-rule:nonzero;fill:rgb(95.686275%,95.294118%,95.294118%);fill-opacity:1;" d="M 10.238281 22.820312 C 10.226562 22.554688 10.199219 22.3125 10.246094 22.078125 C 10.261719 21.988281 10.460938 21.847656 10.539062 21.871094 C 10.695312 21.914062 10.878906 22.027344 10.953125 22.164062 C 11.09375 22.429688 10.984375 22.851562 10.792969 22.960938 C 10.585938 23.078125 10.390625 23.050781 10.238281 22.820312 Z M 10.238281 22.820312 "/>
<path style=" stroke:none;fill-rule:nonzero;fill:rgb(95.686275%,95.686275%,95.686275%);fill-opacity:1;" d="M 20.652344 22.238281 C 20.652344 22.40625 20.6875 22.574219 20.628906 22.691406 C 20.554688 22.824219 20.402344 22.992188 20.273438 23 C 20.144531 23.007812 19.96875 22.863281 19.882812 22.734375 C 19.808594 22.632812 19.816406 22.457031 19.832031 22.316406 C 19.855469 22.085938 19.945312 21.878906 20.214844 21.859375 C 20.464844 21.835938 20.597656 21.980469 20.652344 22.238281 Z M 20.652344 22.238281 "/>
</g>
</svg>
